<svg xmlns="http://www.w3.org/2000/svg" xmlns:xlink="http://www.w3.org/1999/xlink" width="2500" zoomAndPan="magnify" viewBox="0 0 1874.88 1874.999927" height="2500" preserveAspectRatio="xMidYMid meet" version="1.0"><defs><clipPath id="b8fc7587b3"><path d="M 339.820312 562 L 1874.761719 562 L 1874.761719 1874.9375 L 339.820312 1874.9375 Z M 339.820312 562 " clip-rule="nonzero"/></clipPath><clipPath id="99a5c70613"><path d="M 972 0.0585938 L 1874.761719 0.0585938 L 1874.761719 1388 L 972 1388 Z M 972 0.0585938 " clip-rule="nonzero"/></clipPath><clipPath id="3d61ea3b0a"><path d="M 339.820312 562 L 1874.761719 562 L 1874.761719 1874.9375 L 339.820312 1874.9375 Z M 339.820312 562 " clip-rule="nonzero"/></clipPath><clipPath id="1eb4a20e52"><path d="M 972 0.0585938 L 1874.761719 0.0585938 L 1874.761719 1388 L 972 1388 Z M 972 0.0585938 " clip-rule="nonzero"/></clipPath></defs><g clip-path="url(#b8fc7587b3)"><path fill="#113468" d="M 339.789062 1874.523438 L 1874.878906 1874.523438 L 1874.878906 562.183594 C 1681.222656 1548.828125 719.46875 1387.542969 339.789062 1874.523438 Z M 339.789062 1874.523438 " fill-opacity="1" fill-rule="evenodd"/><path fill="#297f87" d="M 339.789062 1874.523438 L 691.238281 1874.523438 C 708.394531 1874.523438 753.71875 1831.1875 769.957031 1821.273438 C 798.539062 1803.816406 827.917969 1787.683594 857.707031 1772.378906 C 919.019531 1740.945312 982.1875 1713.304688 1045.4375 1686.054688 C 1177.140625 1629.3125 1310.230469 1573.917969 1431.6875 1496.816406 C 1562.371094 1413.902344 1679.308594 1305.953125 1750.460938 1166.6875 C 1832.164062 1006.644531 1845.203125 815.515625 1865.875 639.921875 C 1868.914062 614.019531 1871.917969 588.105469 1874.878906 562.183594 C 1681.222656 1548.828125 719.46875 1387.542969 339.789062 1874.523438 Z M 339.789062 1874.523438 " fill-opacity="1" fill-rule="evenodd"/></g><g clip-path="url(#99a5c70613)"><path fill="#113468" d="M 1874.878906 0.460938 L 1874.878906 374.445312 C 1775.6875 763.511719 1449.300781 1261.5625 972.304688 1387.3125 C 1009.804688 1377.429688 1059.425781 1320.40625 1088.960938 1295.265625 C 1127.558594 1262.429688 1164.863281 1228.152344 1200.863281 1192.429688 C 1272.660156 1121.066406 1338.582031 1044.640625 1398.632812 963.148438 C 1505.6875 818.039062 1587.160156 656.597656 1666.152344 495.097656 C 1744.679688 334.550781 1820.617188 171.058594 1874.878906 0.460938 Z M 1874.878906 0.460938 " fill-opacity="1" fill-rule="evenodd"/></g><g clip-path="url(#3d61ea3b0a)"><path fill="#113468" d="M 339.789062 1874.523438 L 1874.878906 1874.523438 L 1874.878906 562.183594 C 1681.222656 1548.828125 719.46875 1387.542969 339.789062 1874.523438 Z M 339.789062 1874.523438 " fill-opacity="1" fill-rule="evenodd"/><path fill="#297f87" d="M 339.789062 1874.523438 L 691.238281 1874.523438 C 708.394531 1874.523438 753.71875 1831.1875 769.957031 1821.273438 C 798.539062 1803.816406 827.917969 1787.683594 857.707031 1772.378906 C 919.019531 1740.945312 982.1875 1713.304688 1045.4375 1686.054688 C 1177.140625 1629.3125 1310.230469 1573.917969 1431.6875 1496.816406 C 1562.371094 1413.902344 1679.308594 1305.953125 1750.460938 1166.6875 C 1832.164062 1006.644531 1845.203125 815.515625 1865.875 639.921875 C 1868.914062 614.019531 1871.917969 588.105469 1874.878906 562.183594 C 1681.222656 1548.828125 719.46875 1387.542969 339.789062 1874.523438 Z M 339.789062 1874.523438 " fill-opacity="1" fill-rule="evenodd"/></g><g clip-path="url(#1eb4a20e52)"><path fill="#113468" d="M 1874.878906 0.460938 L 1874.878906 374.445312 C 1775.6875 763.511719 1449.300781 1261.5625 972.304688 1387.3125 C 1009.804688 1377.429688 1059.425781 1320.40625 1088.960938 1295.265625 C 1127.558594 1262.429688 1164.863281 1228.152344 1200.863281 1192.429688 C 1272.660156 1121.066406 1338.582031 1044.640625 1398.632812 963.148438 C 1505.6875 818.039062 1587.160156 656.597656 1666.152344 495.097656 C 1744.679688 334.550781 1820.617188 171.058594 1874.878906 0.460938 Z M 1874.878906 0.460938 " fill-opacity="1" fill-rule="evenodd"/></g></svg>