<svg xmlns="http://www.w3.org/2000/svg" xmlns:xlink="http://www.w3.org/1999/xlink" width="2500" zoomAndPan="magnify" viewBox="0 0 1874.88 1874.999927" height="2500" preserveAspectRatio="xMidYMid meet" version="1.0"><defs><clipPath id="68f2bbc8a9"><path d="M 0 0.0585938 L 1874.761719 0.0585938 L 1874.761719 1874.9375 L 0 1874.9375 Z M 0 0.0585938 " clip-rule="nonzero"/></clipPath><clipPath id="67295179c6"><path d="M 937.441406 1073 L 1874.761719 1073 L 1874.761719 1874.9375 L 937.441406 1874.9375 Z M 937.441406 1073 " clip-rule="nonzero"/></clipPath><clipPath id="aa2dfc202e"><path d="M 1323 730 L 1874.761719 730 L 1874.761719 1578 L 1323 1578 Z M 1323 730 " clip-rule="nonzero"/></clipPath><clipPath id="751a112bcb"><path d="M 944.941406 1074 L 1874.761719 1074 L 1874.761719 1874.9375 L 944.941406 1874.9375 Z M 944.941406 1074 " clip-rule="nonzero"/></clipPath><clipPath id="26a45477bb"><path d="M 1331 731.476562 L 1874.761719 731.476562 L 1874.761719 1579 L 1331 1579 Z M 1331 731.476562 " clip-rule="nonzero"/></clipPath></defs><g clip-path="url(#68f2bbc8a9)"><path fill="#ffffff" d="M 0 0.0585938 L 1874.878906 0.0585938 L 1874.878906 1874.941406 L 0 1874.941406 Z M 0 0.0585938 " fill-opacity="1" fill-rule="nonzero"/><path fill="#ffffff" d="M 0 0.0585938 L 1874.878906 0.0585938 L 1874.878906 1874.941406 L 0 1874.941406 Z M 0 0.0585938 " fill-opacity="1" fill-rule="nonzero"/></g><g clip-path="url(#67295179c6)"><path fill="#08334d" d="M 937.417969 1874.679688 L 1874.878906 1874.679688 L 1874.878906 1073.25 C 1756.617188 1675.785156 1169.285156 1577.289062 937.417969 1874.679688 Z M 937.417969 1874.679688 " fill-opacity="1" fill-rule="evenodd"/><path fill="#297f87" d="M 937.417969 1874.679688 L 1152.046875 1874.679688 C 1162.523438 1874.679688 1190.203125 1848.214844 1200.117188 1842.160156 C 1217.570312 1831.5 1235.511719 1821.648438 1253.707031 1812.304688 C 1291.148438 1793.105469 1329.722656 1776.226562 1368.351562 1759.585938 C 1448.777344 1724.933594 1530.054688 1691.105469 1604.230469 1644.019531 C 1684.035156 1593.386719 1755.449219 1527.460938 1798.898438 1442.414062 C 1848.792969 1344.679688 1856.753906 1227.957031 1869.378906 1120.726562 C 1871.238281 1104.90625 1873.070312 1089.082031 1874.878906 1073.25 C 1756.617188 1675.785156 1169.285156 1577.289062 937.417969 1874.679688 Z M 937.417969 1874.679688 " fill-opacity="1" fill-rule="evenodd"/></g><g clip-path="url(#aa2dfc202e)"><path fill="#113468" d="M 1874.878906 730.214844 L 1874.878906 958.601562 C 1814.304688 1196.199219 1614.984375 1500.355469 1323.6875 1577.148438 C 1346.589844 1571.113281 1376.894531 1536.289062 1394.929688 1520.933594 C 1418.5 1500.882812 1441.28125 1479.949219 1463.265625 1458.132812 C 1507.109375 1414.554688 1547.367188 1367.878906 1584.039062 1318.113281 C 1649.417969 1229.5 1699.171875 1130.910156 1747.410156 1032.285156 C 1795.367188 934.238281 1841.742188 834.398438 1874.878906 730.214844 Z M 1874.878906 730.214844 " fill-opacity="1" fill-rule="evenodd"/></g><g clip-path="url(#751a112bcb)"><path fill="#08334d" d="M 944.917969 1876.179688 L 1882.378906 1876.179688 L 1882.378906 1074.75 C 1764.113281 1677.285156 1176.785156 1578.789062 944.917969 1876.179688 Z M 944.917969 1876.179688 " fill-opacity="1" fill-rule="evenodd"/><path fill="#297f87" d="M 944.917969 1876.179688 L 1159.546875 1876.179688 C 1170.023438 1876.179688 1197.703125 1849.714844 1207.617188 1843.660156 C 1225.070312 1833 1243.011719 1823.148438 1261.203125 1813.804688 C 1298.648438 1794.605469 1337.222656 1777.726562 1375.851562 1761.085938 C 1456.277344 1726.433594 1537.554688 1692.605469 1611.730469 1645.519531 C 1691.535156 1594.886719 1762.945312 1528.960938 1806.398438 1443.914062 C 1856.292969 1346.175781 1864.253906 1229.457031 1876.878906 1122.226562 C 1878.738281 1106.40625 1880.570312 1090.582031 1882.378906 1074.75 C 1764.113281 1677.285156 1176.785156 1578.789062 944.917969 1876.179688 Z M 944.917969 1876.179688 " fill-opacity="1" fill-rule="evenodd"/></g><g clip-path="url(#26a45477bb)"><path fill="#113468" d="M 1882.378906 731.714844 L 1882.378906 960.101562 C 1821.804688 1197.699219 1622.484375 1501.855469 1331.1875 1578.648438 C 1354.089844 1572.613281 1384.394531 1537.789062 1402.429688 1522.433594 C 1426 1502.382812 1448.78125 1481.449219 1470.765625 1459.632812 C 1514.609375 1416.054688 1554.867188 1369.378906 1591.539062 1319.613281 C 1656.917969 1231 1706.671875 1132.410156 1754.910156 1033.785156 C 1802.867188 935.738281 1849.242188 835.898438 1882.378906 731.714844 Z M 1882.378906 731.714844 " fill-opacity="1" fill-rule="evenodd"/></g></svg>