<svg xmlns="http://www.w3.org/2000/svg" xmlns:xlink="http://www.w3.org/1999/xlink" width="400" zoomAndPan="magnify" viewBox="0 0 300 299.999988" height="400" preserveAspectRatio="xMidYMid meet" version="1.0"><rect x="-30" width="360" fill="#ffffff" y="-29.999999" height="359.999986" fill-opacity="1"/><rect x="-30" width="360" fill="#ffffff" y="-29.999999" height="359.999986" fill-opacity="1"/><path fill="#b0e8ab" d="M 0.402344 321.0625 C 0.402344 321.0625 54.046875 312.933594 97.847656 319.371094 C 141.644531 325.804688 186.382812 320.15625 223.375 309.761719 L 136.949219 294.007812 L 0.402344 303.539062 Z M 0.402344 321.0625 " fill-opacity="1" fill-rule="nonzero"/><path fill="#297f87" d="M 299.609375 267.246094 L 299.609375 277.253906 C 206.730469 312.296875 153.617188 285.511719 95.808594 281.632812 C 28.441406 277.109375 0.402344 294.804688 0.402344 294.804688 L 0.402344 266.871094 C 0.402344 266.871094 5.773438 263.988281 16.921875 261.515625 C 31.675781 258.242188 56.558594 255.695312 92.519531 261.515625 C 109.054688 264.261719 125.328125 268.121094 141.335938 273.089844 C 238.511719 302.832031 299.609375 267.246094 299.609375 267.246094 Z M 299.609375 267.246094 " fill-opacity="1" fill-rule="nonzero"/><path fill="#2f5d64" d="M 299.609375 277.253906 L 299.609375 287.511719 C 299.609375 287.511719 238.511719 315.296875 163.339844 315.296875 C 100.691406 315.296875 82.964844 295.929688 0.402344 310.226562 L 0.402344 294.804688 C 0.402344 294.804688 28.441406 277.109375 95.808594 281.632812 C 153.617188 285.511719 206.730469 312.296875 299.609375 277.253906 Z M 299.609375 277.253906 " fill-opacity="1" fill-rule="nonzero"/></svg>