<svg xmlns="http://www.w3.org/2000/svg" xmlns:xlink="http://www.w3.org/1999/xlink" width="2500" zoomAndPan="magnify" viewBox="0 0 1874.88 1874.999927" height="2500" preserveAspectRatio="xMidYMid meet" version="1.0"><defs><clipPath id="9fe0979a44"><path d="M 0 0.0585938 L 1874.761719 0.0585938 L 1874.761719 1874.9375 L 0 1874.9375 Z M 0 0.0585938 " clip-rule="nonzero"/></clipPath><clipPath id="d23b26c31c"><path d="M 0 1073 L 937.441406 1073 L 937.441406 1874.9375 L 0 1874.9375 Z M 0 1073 " clip-rule="nonzero"/></clipPath><clipPath id="4f76e0dd50"><path d="M 2.25 1083 L 939.691406 1083 L 939.691406 1874.9375 L 2.25 1874.9375 Z M 2.25 1083 " clip-rule="nonzero"/></clipPath><clipPath id="849ec28f20"><path d="M 2.25 739.722656 L 554 739.722656 L 554 1587 L 2.25 1587 Z M 2.25 739.722656 " clip-rule="nonzero"/></clipPath></defs><g clip-path="url(#9fe0979a44)"><path fill="#ffffff" d="M 0 0.0585938 L 1874.878906 0.0585938 L 1874.878906 1874.941406 L 0 1874.941406 Z M 0 0.0585938 " fill-opacity="1" fill-rule="nonzero"/><path fill="#ffffff" d="M 0 0.0585938 L 1874.878906 0.0585938 L 1874.878906 1874.941406 L 0 1874.941406 Z M 0 0.0585938 " fill-opacity="1" fill-rule="nonzero"/></g><g clip-path="url(#d23b26c31c)"><path fill="#08334d" d="M 937.460938 1874.902344 L 0 1874.902344 L 0 1073.320312 C 118.265625 1675.96875 705.59375 1577.453125 937.460938 1874.902344 Z M 937.460938 1874.902344 " fill-opacity="1" fill-rule="evenodd"/><path fill="#0070b3" d="M 937.460938 1874.902344 L 722.832031 1874.902344 C 712.355469 1874.902344 684.679688 1848.433594 674.761719 1842.378906 C 657.308594 1831.714844 639.367188 1821.859375 621.175781 1812.511719 C 583.730469 1793.3125 545.15625 1776.429688 506.53125 1759.785156 C 426.101562 1725.128906 344.824219 1691.292969 270.652344 1644.195312 C 190.847656 1593.554688 119.433594 1527.617188 75.980469 1442.550781 C 26.085938 1344.796875 18.125 1228.054688 5.5 1120.800781 C 3.640625 1104.980469 1.808594 1089.152344 0 1073.320312 C 118.265625 1675.96875 705.59375 1577.453125 937.460938 1874.902344 Z M 937.460938 1874.902344 " fill-opacity="1" fill-rule="evenodd"/></g><path fill="#99c6e1" d="M 0 730.214844 L 0 958.644531 C 60.574219 1196.289062 259.898438 1500.503906 551.191406 1577.3125 C 528.289062 1571.277344 497.984375 1536.445312 479.949219 1521.089844 C 456.378906 1501.03125 433.597656 1480.09375 411.613281 1458.273438 C 367.769531 1414.6875 327.511719 1368.003906 290.839844 1318.230469 C 225.460938 1229.597656 175.707031 1130.988281 127.46875 1032.34375 C 79.511719 934.277344 33.136719 834.417969 0 730.214844 Z M 0 730.214844 " fill-opacity="1" fill-rule="evenodd"/><g clip-path="url(#4f76e0dd50)"><path fill="#08334d" d="M 939.710938 1884.429688 L 2.25 1884.429688 L 2.25 1083 C 120.515625 1685.53125 707.84375 1587.039062 939.710938 1884.429688 Z M 939.710938 1884.429688 " fill-opacity="1" fill-rule="evenodd"/><path fill="#297f87" d="M 939.710938 1884.429688 L 725.082031 1884.429688 C 714.605469 1884.429688 686.929688 1857.964844 677.011719 1851.910156 C 659.558594 1841.25 641.617188 1831.398438 623.425781 1822.050781 C 585.980469 1802.855469 547.40625 1785.976562 508.78125 1769.335938 C 428.351562 1734.683594 347.074219 1700.855469 272.902344 1653.769531 C 193.09375 1603.136719 121.683594 1537.210938 78.230469 1452.164062 C 28.335938 1354.425781 20.375 1237.707031 7.75 1130.476562 C 5.890625 1114.65625 4.058594 1098.832031 2.25 1083 C 120.515625 1685.53125 707.84375 1587.039062 939.710938 1884.429688 Z M 939.710938 1884.429688 " fill-opacity="1" fill-rule="evenodd"/></g><g clip-path="url(#849ec28f20)"><path fill="#113468" d="M 2.25 739.960938 L 2.25 968.351562 C 62.824219 1205.949219 262.144531 1510.101562 553.441406 1586.894531 C 530.539062 1580.863281 500.234375 1546.039062 482.199219 1530.683594 C 458.628906 1510.632812 435.847656 1489.699219 413.863281 1467.882812 C 370.019531 1424.304688 329.761719 1377.628906 293.089844 1327.863281 C 227.710938 1239.25 177.957031 1140.660156 129.71875 1042.03125 C 81.761719 943.988281 35.386719 844.148438 2.25 739.960938 Z M 2.25 739.960938 " fill-opacity="1" fill-rule="evenodd"/></g></svg>