<svg xmlns="http://www.w3.org/2000/svg" xmlns:xlink="http://www.w3.org/1999/xlink" width="2500" zoomAndPan="magnify" viewBox="0 0 1874.88 1874.999927" height="2500" preserveAspectRatio="xMidYMid meet" version="1.0"><defs><clipPath id="d68d52fd87"><path d="M 0 562 L 1535.152344 562 L 1535.152344 1874.9375 L 0 1874.9375 Z M 0 562 " clip-rule="nonzero"/></clipPath><clipPath id="0ebe981be1"><path d="M 0 0.0585938 L 903 0.0585938 L 903 1388 L 0 1388 Z M 0 0.0585938 " clip-rule="nonzero"/></clipPath><clipPath id="748947140c"><path d="M 0 562 L 1535.152344 562 L 1535.152344 1874.9375 L 0 1874.9375 Z M 0 562 " clip-rule="nonzero"/></clipPath><clipPath id="c9469e4b4e"><path d="M 0 0.0585938 L 903 0.0585938 L 903 1388 L 0 1388 Z M 0 0.0585938 " clip-rule="nonzero"/></clipPath></defs><g clip-path="url(#d68d52fd87)"><path fill="#113468" d="M 1535.09375 1874.523438 L 0 1874.523438 L 0 562.183594 C 193.65625 1548.828125 1155.410156 1387.542969 1535.09375 1874.523438 Z M 1535.09375 1874.523438 " fill-opacity="1" fill-rule="evenodd"/><path fill="#297f87" d="M 1535.09375 1874.523438 L 1183.640625 1874.523438 C 1166.484375 1874.523438 1121.160156 1831.1875 1104.921875 1821.273438 C 1076.34375 1803.816406 1046.964844 1787.683594 1017.171875 1772.378906 C 955.859375 1740.945312 892.695312 1713.304688 829.441406 1686.054688 C 697.742188 1629.3125 564.648438 1573.917969 443.191406 1496.816406 C 312.511719 1413.902344 195.570312 1305.953125 124.417969 1166.6875 C 42.714844 1006.644531 29.679688 815.515625 9.007812 639.921875 C 5.964844 614.019531 2.960938 588.105469 0 562.183594 C 193.65625 1548.828125 1155.410156 1387.542969 1535.09375 1874.523438 Z M 1535.09375 1874.523438 " fill-opacity="1" fill-rule="evenodd"/></g><g clip-path="url(#0ebe981be1)"><path fill="#113468" d="M 0 0.460938 L 0 374.445312 C 99.191406 763.511719 425.582031 1261.5625 902.574219 1387.3125 C 865.074219 1377.429688 815.453125 1320.40625 785.917969 1295.265625 C 747.320312 1262.429688 710.019531 1228.152344 674.015625 1192.429688 C 602.222656 1121.066406 536.300781 1044.640625 476.25 963.148438 C 369.191406 818.039062 287.71875 656.597656 208.730469 495.097656 C 130.199219 334.550781 54.261719 171.058594 0 0.460938 Z M 0 0.460938 " fill-opacity="1" fill-rule="evenodd"/></g><g clip-path="url(#748947140c)"><path fill="#113468" d="M 1535.09375 1874.523438 L 0 1874.523438 L 0 562.183594 C 193.65625 1548.828125 1155.410156 1387.542969 1535.09375 1874.523438 Z M 1535.09375 1874.523438 " fill-opacity="1" fill-rule="evenodd"/><path fill="#297f87" d="M 1535.09375 1874.523438 L 1183.640625 1874.523438 C 1166.484375 1874.523438 1121.160156 1831.1875 1104.921875 1821.273438 C 1076.34375 1803.816406 1046.964844 1787.683594 1017.171875 1772.378906 C 955.859375 1740.945312 892.695312 1713.304688 829.441406 1686.054688 C 697.742188 1629.3125 564.648438 1573.917969 443.191406 1496.816406 C 312.511719 1413.902344 195.570312 1305.953125 124.417969 1166.6875 C 42.714844 1006.644531 29.679688 815.515625 9.007812 639.921875 C 5.964844 614.019531 2.960938 588.105469 0 562.183594 C 193.65625 1548.828125 1155.410156 1387.542969 1535.09375 1874.523438 Z M 1535.09375 1874.523438 " fill-opacity="1" fill-rule="evenodd"/></g><g clip-path="url(#c9469e4b4e)"><path fill="#113468" d="M 0 0.460938 L 0 374.445312 C 99.191406 763.511719 425.582031 1261.5625 902.574219 1387.3125 C 865.074219 1377.429688 815.453125 1320.40625 785.917969 1295.265625 C 747.320312 1262.429688 710.019531 1228.152344 674.015625 1192.429688 C 602.222656 1121.066406 536.300781 1044.640625 476.25 963.148438 C 369.191406 818.039062 287.71875 656.597656 208.730469 495.097656 C 130.199219 334.550781 54.261719 171.058594 0 0.460938 Z M 0 0.460938 " fill-opacity="1" fill-rule="evenodd"/></g></svg>