<?xml version="1.0" encoding="UTF-8"?>
<!DOCTYPE svg PUBLIC "-//W3C//DTD SVG 1.1//EN" "http://www.w3.org/Graphics/SVG/1.1/DTD/svg11.dtd">
<svg xmlns="http://www.w3.org/2000/svg" version="1.1" width="500px" height="500px" style="shape-rendering:geometricPrecision; text-rendering:geometricPrecision; image-rendering:optimizeQuality; fill-rule:evenodd; clip-rule:evenodd" xmlns:xlink="http://www.w3.org/1999/xlink">
<g><path style="opacity:1" fill="#455a7c" d="M 1.5,200.5 C 3.40221,204.655 5.06887,208.989 6.5,213.5C 4.5,210.833 2.5,208.167 0.5,205.5C 0.215521,203.585 0.548855,201.919 1.5,200.5 Z"/></g>
<g><path style="opacity:0.89" fill="#6b91ba" d="M -0.5,194.5 C 0.738379,196.214 1.40505,198.214 1.5,200.5C 0.548855,201.919 0.215521,203.585 0.5,205.5C 0.5,223.5 0.5,241.5 0.5,259.5C 0.166667,259.5 -0.166667,259.5 -0.5,259.5C -0.5,237.833 -0.5,216.167 -0.5,194.5 Z"/></g>
<g><path style="opacity:1" fill="#7289aa" d="M 6.5,214.5 C 8.06518,216.509 9.06518,218.843 9.5,221.5C 7.16628,219.824 6.16628,217.491 6.5,214.5 Z"/></g>
<g><path style="opacity:1" fill="#143568" d="M 0.5,205.5 C 2.5,208.167 4.5,210.833 6.5,213.5C 6.5,213.833 6.5,214.167 6.5,214.5C 6.16628,217.491 7.16628,219.824 9.5,221.5C 9.12012,223.698 9.78679,225.365 11.5,226.5C 12.404,227.209 12.7373,228.209 12.5,229.5C 11.8294,233.548 13.1627,236.548 16.5,238.5C 15.8294,242.548 17.1627,245.548 20.5,247.5C 20.5,250.167 20.5,252.833 20.5,255.5C 21.5,255.5 22.5,255.5 23.5,255.5C 23.3398,257.199 23.5065,258.866 24,260.5C 24.2784,259.584 24.7784,258.918 25.5,258.5C 25.3379,260.527 25.5045,262.527 26,264.5C 26.8159,265.823 27.9826,266.489 29.5,266.5C 29.804,269.522 30.304,272.522 31,275.5C 32.3997,276.748 33.8997,277.748 35.5,278.5C 35.1568,280.483 35.8235,281.817 37.5,282.5C 37.0246,285.313 38.0246,287.313 40.5,288.5C 40.1568,290.483 40.8235,291.817 42.5,292.5C 42.1568,294.483 42.8235,295.817 44.5,296.5C 44.5444,303.01 46.8777,308.343 51.5,312.5C 52.1667,312.833 52.8333,313.167 53.5,313.5C 53.1568,315.483 53.8235,316.817 55.5,317.5C 56.3382,317.842 56.6716,318.508 56.5,319.5C 56.7497,321.674 57.7497,323.341 59.5,324.5C 59.7497,326.674 60.7497,328.341 62.5,329.5C 62.427,331.027 63.0937,332.027 64.5,332.5C 65.3382,332.842 65.6716,333.508 65.5,334.5C 65.427,336.027 66.0937,337.027 67.5,337.5C 67.427,339.027 68.0937,340.027 69.5,340.5C 69.427,342.027 70.0937,343.027 71.5,343.5C 71.427,345.027 72.0937,346.027 73.5,346.5C 82.7775,360.681 93.2775,374.014 105,386.5C 116.063,397.067 127.229,407.4 138.5,417.5C 133.613,416.366 128.613,415.366 123.5,414.5C 121.847,414.34 120.514,413.674 119.5,412.5C 119.586,411.504 119.252,410.671 118.5,410C 120.167,409.667 121.833,409.333 123.5,409C 120.997,407.78 118.331,407.447 115.5,408C 114.874,407.25 114.374,406.416 114,405.5C 113.439,406.022 112.772,406.355 112,406.5C 108.642,404.66 105.142,403.327 101.5,402.5C 101.027,401.094 100.027,400.427 98.5,400.5C 98.0269,399.094 97.0269,398.427 95.5,398.5C 95.0269,397.094 94.0269,396.427 92.5,396.5C 90.5956,396.262 89.2623,395.262 88.5,393.5C 88.0269,392.094 87.0269,391.427 85.5,391.5C 84.5,391.167 83.8333,390.5 83.5,389.5C 83.0269,388.094 82.0269,387.427 80.5,387.5C 78.8333,386.5 77.5,385.167 76.5,383.5C 75.7377,381.738 74.4044,380.738 72.5,380.5C 69.5,378.167 66.8333,375.5 64.5,372.5C 63.962,370.883 63.6287,369.216 63.5,367.5C 62.448,367.649 61.448,367.483 60.5,367C 60.5459,364.255 58.8793,362.755 55.5,362.5C 54.8336,360.494 54.8336,358.66 55.5,357C 53.3234,355.814 52.3234,353.981 52.5,351.5C 51.1266,351.657 49.7932,351.49 48.5,351C 47.6948,349.028 46.3615,347.528 44.5,346.5C 43.3679,344.402 42.3679,342.235 41.5,340C 41.9054,339.055 42.572,338.388 43.5,338C 41.5273,337.505 39.5273,337.338 37.5,337.5C 38.2045,333.529 36.8711,332.195 33.5,333.5C 32.3263,332.486 31.6596,331.153 31.5,329.5C 31.8039,328.85 32.1373,328.183 32.5,327.5C 30.9406,325.531 29.274,323.698 27.5,322C 28.4119,320.375 27.7453,319.541 25.5,319.5C 25.9546,316.069 24.6213,313.736 21.5,312.5C 17.7119,306.588 14.7119,300.255 12.5,293.5C 12.6621,291.473 12.4955,289.473 12,287.5C 11.6667,287.833 11.3333,288.167 11,288.5C 10.8784,286.563 10.045,285.23 8.5,284.5C 5.0573,276.502 2.39063,268.169 0.5,259.5C 0.5,241.5 0.5,223.5 0.5,205.5 Z"/></g>
<g><path style="opacity:0.965" fill="#869cb0" d="M 9.5,221.5 C 10.5375,222.93 11.2041,224.597 11.5,226.5C 9.78679,225.365 9.12012,223.698 9.5,221.5 Z"/></g>
<g><path style="opacity:1" fill="#4e6186" d="M 12.5,229.5 C 14.5918,232.088 15.9251,235.088 16.5,238.5C 13.1627,236.548 11.8294,233.548 12.5,229.5 Z"/></g>
<g><path style="opacity:1" fill="#54658c" d="M 16.5,238.5 C 18.5918,241.088 19.9251,244.088 20.5,247.5C 17.1627,245.548 15.8294,242.548 16.5,238.5 Z"/></g>
<g><path style="opacity:1" fill="#445881" d="M 20.5,247.5 C 22.951,250.74 24.6176,254.407 25.5,258.5C 24.7784,258.918 24.2784,259.584 24,260.5C 23.5065,258.866 23.3398,257.199 23.5,255.5C 22.5,255.5 21.5,255.5 20.5,255.5C 20.5,252.833 20.5,250.167 20.5,247.5 Z"/></g>
<g><path style="opacity:1" fill="#465d82" d="M 25.5,258.5 C 27.341,260.849 28.6743,263.515 29.5,266.5C 27.9826,266.489 26.8159,265.823 26,264.5C 25.5045,262.527 25.3379,260.527 25.5,258.5 Z"/></g>
<g><path style="opacity:1" fill="#566c91" d="M 29.5,266.5 C 32.0078,270.182 34.0078,274.182 35.5,278.5C 33.8997,277.748 32.3997,276.748 31,275.5C 30.304,272.522 29.804,269.522 29.5,266.5 Z"/></g>
<g><path style="opacity:0.945" fill="#8ba0b7" d="M 35.5,278.5 C 36.6737,279.514 37.3404,280.847 37.5,282.5C 35.8235,281.817 35.1568,280.483 35.5,278.5 Z"/></g>
<g><path style="opacity:0.173" fill="#b5c3d9" d="M 37.5,282.5 C 39.0075,284.181 40.0075,286.181 40.5,288.5C 38.0246,287.313 37.0246,285.313 37.5,282.5 Z"/></g>
<g><path style="opacity:1" fill="#5c6e8e" d="M 8.5,284.5 C 10.045,285.23 10.8784,286.563 11,288.5C 11.3333,288.167 11.6667,287.833 12,287.5C 12.4955,289.473 12.6621,291.473 12.5,293.5C 10.4082,290.912 9.07488,287.912 8.5,284.5 Z"/></g>
<g><path style="opacity:0.925" fill="#90a2bc" d="M 40.5,288.5 C 41.6737,289.514 42.3404,290.847 42.5,292.5C 40.8235,291.817 40.1568,290.483 40.5,288.5 Z"/></g>
<g><path style="opacity:0.933" fill="#8da0bd" d="M 42.5,292.5 C 43.6737,293.514 44.3404,294.847 44.5,296.5C 42.8235,295.817 42.1568,294.483 42.5,292.5 Z"/></g>
<g><path style="opacity:1" fill="#4c6088" d="M 44.5,296.5 C 47.3411,300.849 49.6745,305.516 51.5,310.5C 51.5,311.167 51.5,311.833 51.5,312.5C 46.8777,308.343 44.5444,303.01 44.5,296.5 Z"/></g>
<g><path style="opacity:0.188" fill="#c7d7eb" d="M 51.5,310.5 C 52.9063,310.973 53.573,311.973 53.5,313.5C 52.8333,313.167 52.1667,312.833 51.5,312.5C 51.5,311.833 51.5,311.167 51.5,310.5 Z"/></g>
<g><path style="opacity:1" fill="#6a7896" d="M 21.5,312.5 C 24.6213,313.736 25.9546,316.069 25.5,319.5C 23.412,317.664 22.0787,315.331 21.5,312.5 Z"/></g>
<g><path style="opacity:0.984" fill="#8097b4" d="M 53.5,313.5 C 54.6737,314.514 55.3404,315.847 55.5,317.5C 53.8235,316.817 53.1568,315.483 53.5,313.5 Z"/></g>
<g><path style="opacity:0.239" fill="#b2cee1" d="M 56.5,319.5 C 58.2503,320.659 59.2503,322.326 59.5,324.5C 57.7497,323.341 56.7497,321.674 56.5,319.5 Z"/></g>
<g><path style="opacity:1" fill="#516283" d="M 25.5,319.5 C 27.7453,319.541 28.4119,320.375 27.5,322C 29.274,323.698 30.9406,325.531 32.5,327.5C 32.1373,328.183 31.8039,328.85 31.5,329.5C 28.4977,326.839 26.4977,323.505 25.5,319.5 Z"/></g>
<g><path style="opacity:0.216" fill="#bccfe3" d="M 59.5,324.5 C 61.2503,325.659 62.2503,327.326 62.5,329.5C 60.7497,328.341 59.7497,326.674 59.5,324.5 Z"/></g>
<g><path style="opacity:0.255" fill="#c5d8ec" d="M 62.5,329.5 C 63.9063,329.973 64.573,330.973 64.5,332.5C 63.0937,332.027 62.427,331.027 62.5,329.5 Z"/></g>
<g><path style="opacity:1" fill="#07334c" d="M -0.5,285.5 C 0.913011,288.219 1.57968,291.219 1.5,294.5C 1.5,298.5 1.5,302.5 1.5,306.5C 1.27091,319.001 2.60425,331.334 5.5,343.5C 5.10544,345.466 4.7721,347.466 4.5,349.5C 6.85148,357.741 9.51814,365.908 12.5,374C 11.7417,375.364 12.2417,376.531 14,377.5C 16.2941,381.962 18.2941,386.629 20,391.5C 20.8159,392.823 21.9826,393.489 23.5,393.5C 34.5539,410.056 48.2205,424.223 64.5,436C 94.8334,453.795 126.5,469.128 159.5,482C 165.008,485.255 170.675,488.255 176.5,491C 180.09,493.614 183.424,496.448 186.5,499.5C 124.167,499.5 61.8333,499.5 -0.5,499.5C -0.5,428.167 -0.5,356.833 -0.5,285.5 Z"/></g>
<g><path style="opacity:0.357" fill="#b6c8e0" d="M 65.5,334.5 C 66.9063,334.973 67.573,335.973 67.5,337.5C 66.0937,337.027 65.427,336.027 65.5,334.5 Z"/></g>
<g><path style="opacity:1" fill="#374c74" d="M 55.5,362.5 C 47.4301,353.425 40.0968,343.758 33.5,333.5C 36.8711,332.195 38.2045,333.529 37.5,337.5C 39.5273,337.338 41.5273,337.505 43.5,338C 42.572,338.388 41.9054,339.055 41.5,340C 42.3679,342.235 43.3679,344.402 44.5,346.5C 46.3615,347.528 47.6948,349.028 48.5,351C 49.7932,351.49 51.1266,351.657 52.5,351.5C 52.3234,353.981 53.3234,355.814 55.5,357C 54.8336,358.66 54.8336,360.494 55.5,362.5 Z"/></g>
<g><path style="opacity:0.341" fill="#b8cbe7" d="M 67.5,337.5 C 68.9063,337.973 69.573,338.973 69.5,340.5C 68.0937,340.027 67.427,339.027 67.5,337.5 Z"/></g>
<g><path style="opacity:0.357" fill="#bdcde7" d="M 69.5,340.5 C 70.9063,340.973 71.573,341.973 71.5,343.5C 70.0937,343.027 69.427,342.027 69.5,340.5 Z"/></g>
<g><path style="opacity:1" fill="#03394e" d="M 1.5,306.5 C 4.08474,324.792 7.25141,343.126 11,361.5C 14.1014,372.647 18.268,383.314 23.5,393.5C 21.9826,393.489 20.8159,392.823 20,391.5C 18.2941,386.629 16.2941,381.962 14,377.5C 12.2417,376.531 11.7417,375.364 12.5,374C 9.51814,365.908 6.85148,357.741 4.5,349.5C 4.7721,347.466 5.10544,345.466 5.5,343.5C 2.60425,331.334 1.27091,319.001 1.5,306.5 Z"/></g>
<g><path style="opacity:0.408" fill="#b8cde1" d="M 71.5,343.5 C 72.9063,343.973 73.573,344.973 73.5,346.5C 72.0937,346.027 71.427,345.027 71.5,343.5 Z"/></g>
<g><path style="opacity:1" fill="#297e88" d="M 1.5,294.5 C 7.18708,316.887 16.1871,337.887 28.5,357.5C 29.0604,359.801 29.5604,362.134 30,364.5C 34.3364,370.758 39.5031,376.258 45.5,381C 46.7932,381.49 48.1266,381.657 49.5,381.5C 49.238,382.978 49.5713,384.311 50.5,385.5C 56.4635,390.128 62.1302,395.128 67.5,400.5C 73.1407,403.321 78.4741,406.655 83.5,410.5C 85.0453,411.452 86.712,411.785 88.5,411.5C 88.281,412.675 88.6143,413.675 89.5,414.5C 90.5178,413.807 91.5178,413.141 92.5,412.5C 93.3891,414.736 94.7224,416.736 96.5,418.5C 99.941,419.462 103.274,420.628 106.5,422C 114.802,427.653 123.802,431.653 133.5,434C 135.664,434.914 137.664,436.081 139.5,437.5C 140.386,436.675 140.719,435.675 140.5,434.5C 142.153,434.66 143.486,435.326 144.5,436.5C 143.448,436.351 142.448,436.517 141.5,437C 144.918,440.089 148.918,441.756 153.5,442C 157.904,444.533 162.571,446.533 167.5,448C 173.229,451.772 179.563,454.438 186.5,456C 192.628,458.127 197.628,461.794 201.5,467C 210.239,471.355 218.905,475.689 227.5,480C 230.349,483.016 233.349,485.85 236.5,488.5C 235.5,489.167 234.5,489.833 233.5,490.5C 235.135,491.681 236.802,491.681 238.5,490.5C 242.767,491.903 245.1,494.903 245.5,499.5C 225.833,499.5 206.167,499.5 186.5,499.5C 183.424,496.448 180.09,493.614 176.5,491C 170.675,488.255 165.008,485.255 159.5,482C 126.5,469.128 94.8334,453.795 64.5,436C 48.2205,424.223 34.5539,410.056 23.5,393.5C 18.268,383.314 14.1014,372.647 11,361.5C 7.25141,343.126 4.08474,324.792 1.5,306.5C 1.5,302.5 1.5,298.5 1.5,294.5 Z"/></g>
<g><path style="opacity:1" fill="#526485" d="M 55.5,362.5 C 58.8793,362.755 60.5459,364.255 60.5,367C 61.448,367.483 62.448,367.649 63.5,367.5C 63.6287,369.216 63.962,370.883 64.5,372.5C 60.7881,369.789 57.7881,366.456 55.5,362.5 Z"/></g>
<g><path style="opacity:0.404" fill="#b0c9e0" d="M 73.5,346.5 C 93.5602,373.395 116.894,397.228 143.5,418C 144.598,418.77 144.598,419.603 143.5,420.5C 141.668,419.752 140.001,418.752 138.5,417.5C 127.229,407.4 116.063,397.067 105,386.5C 93.2775,374.014 82.7775,360.681 73.5,346.5 Z"/></g>
<g><path style="opacity:1" fill="#4b8aa3" d="M 28.5,357.5 C 35.0188,365.834 42.0188,373.834 49.5,381.5C 48.1266,381.657 46.7932,381.49 45.5,381C 39.5031,376.258 34.3364,370.758 30,364.5C 29.5604,362.134 29.0604,359.801 28.5,357.5 Z"/></g>
<g><path style="opacity:0.737" fill="#a3b0bf" d="M 72.5,380.5 C 74.4044,380.738 75.7377,381.738 76.5,383.5C 74.5956,383.262 73.2623,382.262 72.5,380.5 Z"/></g>
<g><path style="opacity:0.714" fill="#99a8b9" d="M 80.5,387.5 C 82.0269,387.427 83.0269,388.094 83.5,389.5C 81.9731,389.573 80.9731,388.906 80.5,387.5 Z"/></g>
<g><path style="opacity:1" fill="#4284a5" d="M 49.5,381.5 C 62.6349,393.561 76.9682,403.894 92.5,412.5C 91.5178,413.141 90.5178,413.807 89.5,414.5C 88.6143,413.675 88.281,412.675 88.5,411.5C 86.712,411.785 85.0453,411.452 83.5,410.5C 78.4741,406.655 73.1407,403.321 67.5,400.5C 62.1302,395.128 56.4635,390.128 50.5,385.5C 49.5713,384.311 49.238,382.978 49.5,381.5 Z"/></g>
<g><path style="opacity:0.49" fill="#a2adc0" d="M 85.5,391.5 C 87.0269,391.427 88.0269,392.094 88.5,393.5C 86.9731,393.573 85.9731,392.906 85.5,391.5 Z"/></g>
<g><path style="opacity:0.616" fill="#8897ac" d="M 92.5,396.5 C 94.0269,396.427 95.0269,397.094 95.5,398.5C 93.9731,398.573 92.9731,397.906 92.5,396.5 Z"/></g>
<g><path style="opacity:0.659" fill="#7d8ca8" d="M 95.5,398.5 C 97.0269,398.427 98.0269,399.094 98.5,400.5C 96.9731,400.573 95.9731,399.906 95.5,398.5 Z"/></g>
<g><path style="opacity:0.627" fill="#8191a9" d="M 98.5,400.5 C 100.027,400.427 101.027,401.094 101.5,402.5C 99.9731,402.573 98.9731,401.906 98.5,400.5 Z"/></g>
<g><path style="opacity:1" fill="#354a75" d="M 101.5,402.5 C 105.142,403.327 108.642,404.66 112,406.5C 112.772,406.355 113.439,406.022 114,405.5C 114.374,406.416 114.874,407.25 115.5,408C 118.331,407.447 120.997,407.78 123.5,409C 121.833,409.333 120.167,409.667 118.5,410C 119.252,410.671 119.586,411.504 119.5,412.5C 112.847,410.177 106.847,406.844 101.5,402.5 Z"/></g>
<g><path style="opacity:1" fill="#515f82" d="M 123.5,414.5 C 128.613,415.366 133.613,416.366 138.5,417.5C 140.001,418.752 141.668,419.752 143.5,420.5C 143.5,421.167 143.167,421.5 142.5,421.5C 135.718,420.131 129.385,417.798 123.5,414.5 Z"/></g>
<g><path style="opacity:0.384" fill="#d7dedf" d="M 143.5,420.5 C 144.473,420.987 145.473,421.487 146.5,422C 144.934,422.765 143.601,422.598 142.5,421.5C 143.167,421.5 143.5,421.167 143.5,420.5 Z"/></g>
<g><path style="opacity:1" fill="#3d81a6" d="M 92.5,412.5 C 108.235,420.367 124.235,427.7 140.5,434.5C 140.719,435.675 140.386,436.675 139.5,437.5C 137.664,436.081 135.664,434.914 133.5,434C 123.802,431.653 114.802,427.653 106.5,422C 103.274,420.628 99.941,419.462 96.5,418.5C 94.7224,416.736 93.3891,414.736 92.5,412.5 Z"/></g>
<g><path style="opacity:1" fill="#3d82a4" d="M 144.5,436.5 C 168.661,445.079 191.994,455.579 214.5,468C 222.858,473.513 230.858,479.513 238.5,486C 242.782,490.103 246.449,494.603 249.5,499.5C 248.167,499.5 246.833,499.5 245.5,499.5C 245.1,494.903 242.767,491.903 238.5,490.5C 236.802,491.681 235.135,491.681 233.5,490.5C 234.5,489.833 235.5,489.167 236.5,488.5C 233.349,485.85 230.349,483.016 227.5,480C 218.905,475.689 210.239,471.355 201.5,467C 197.628,461.794 192.628,458.127 186.5,456C 179.563,454.438 173.229,451.772 167.5,448C 162.571,446.533 157.904,444.533 153.5,442C 148.918,441.756 144.918,440.089 141.5,437C 142.448,436.517 143.448,436.351 144.5,436.5 Z"/></g>
</svg>
