<?xml version="1.0" encoding="UTF-8"?>
<!DOCTYPE svg PUBLIC "-//W3C//DTD SVG 1.1//EN" "http://www.w3.org/Graphics/SVG/1.1/DTD/svg11.dtd">
<svg xmlns="http://www.w3.org/2000/svg" version="1.1" width="500px" height="500px" style="shape-rendering:geometricPrecision; text-rendering:geometricPrecision; image-rendering:optimizeQuality; fill-rule:evenodd; clip-rule:evenodd" xmlns:xlink="http://www.w3.org/1999/xlink">
<g><path style="opacity:1" fill="#5b6c8a" d="M 498.5,196.5 C 498.196,199.522 497.696,202.522 497,205.5C 496.292,206.381 495.458,207.047 494.5,207.5C 495.462,203.605 496.796,199.939 498.5,196.5 Z"/></g>
<g><path style="opacity:1" fill="#143568" d="M 499.5,194.5 C 499.5,217.5 499.5,240.5 499.5,263.5C 496.752,264.884 496.086,266.884 497.5,269.5C 495.13,278.622 491.796,287.289 487.5,295.5C 486.027,296.072 484.693,296.905 483.5,298C 483.854,299.626 483.854,301.459 483.5,303.5C 482.341,307.151 480.674,310.485 478.5,313.5C 474.88,314.452 473.213,316.785 473.5,320.5C 472.022,320.238 470.689,320.571 469.5,321.5C 470.63,322.622 471.297,323.956 471.5,325.5C 469.655,325.14 467.655,325.14 465.5,325.5C 467.333,326.968 467.666,328.635 466.5,330.5C 465.914,330.291 465.414,329.957 465,329.5C 464.503,331.81 464.337,334.143 464.5,336.5C 464.5,337.167 464.167,337.5 463.5,337.5C 461.983,337.489 460.816,336.823 460,335.5C 459.503,338.146 459.336,340.813 459.5,343.5C 458.5,343.5 457.5,343.5 456.5,343.5C 456.5,344.833 456.5,346.167 456.5,347.5C 456.5,348.167 456.167,348.5 455.5,348.5C 455.44,347.957 455.107,347.624 454.5,347.5C 453.833,348.5 453.167,349.5 452.5,350.5C 451.914,350.291 451.414,349.957 451,349.5C 449.519,352.11 448.352,354.777 447.5,357.5C 446.178,357.67 445.011,357.337 444,356.5C 443.503,358.81 443.337,361.143 443.5,363.5C 442.5,365.167 441.167,366.5 439.5,367.5C 436.802,367.45 434.636,368.45 433,370.5C 432.667,370.167 432.333,369.833 432,369.5C 431.506,371.134 431.34,372.801 431.5,374.5C 430.5,374.5 429.5,374.5 428.5,374.5C 428.5,375.833 428.5,377.167 428.5,378.5C 427.089,380.914 425.089,382.581 422.5,383.5C 420.089,383.137 418.589,384.137 418,386.5C 414.463,384.018 413.63,385.018 415.5,389.5C 413.234,389.859 411.401,389.192 410,387.5C 408.85,390.048 408.017,392.715 407.5,395.5C 405.833,395.5 404.167,395.5 402.5,395.5C 402.5,396.833 402.5,398.167 402.5,399.5C 402.167,399.5 401.833,399.5 401.5,399.5C 399.012,397.067 396.345,396.9 393.5,399C 394.167,399.333 394.833,399.667 395.5,400C 393.665,402.629 391.331,403.129 388.5,401.5C 387.571,400.311 387.238,398.978 387.5,397.5C 386.448,397.351 385.448,397.517 384.5,398C 383.166,400.087 381.333,401.587 379,402.5C 378.536,401.906 378.369,401.239 378.5,400.5C 380.5,398.167 382.5,395.833 384.5,393.5C 388.167,389.167 392.167,385.167 396.5,381.5C 398.262,380.738 399.262,379.404 399.5,377.5C 401.167,375.167 403.167,373.167 405.5,371.5C 407.262,370.738 408.262,369.404 408.5,367.5C 410.273,364.94 412.273,362.607 414.5,360.5C 416.262,359.738 417.262,358.404 417.5,356.5C 419.531,355.461 420.864,353.795 421.5,351.5C 421.738,349.596 422.738,348.262 424.5,347.5C 425.906,347.027 426.573,346.027 426.5,344.5C 427.906,344.027 428.573,343.027 428.5,341.5C 429.906,341.027 430.573,340.027 430.5,338.5C 431.906,338.027 432.573,337.027 432.5,335.5C 433.906,335.027 434.573,334.027 434.5,332.5C 434.75,330.326 435.75,328.659 437.5,327.5C 439.408,326.514 440.408,324.848 440.5,322.5C 443.931,320.652 445.597,317.652 445.5,313.5C 452.298,311.931 455.131,307.598 454,300.5C 456.345,296.812 457.845,292.812 458.5,288.5C 460.702,287.208 462.369,285.374 463.5,283C 462.748,282.329 462.414,281.496 462.5,280.5C 464.326,275.516 466.659,270.849 469.5,266.5C 472.883,263.711 474.55,260.045 474.5,255.5C 475.5,255.5 476.5,255.5 477.5,255.5C 478.318,251.525 479.984,247.859 482.5,244.5C 483.133,241.505 484.133,238.672 485.5,236C 484.748,235.329 484.414,234.496 484.5,233.5C 486.786,232.005 488.62,230.005 490,227.5C 491.572,221.162 493.072,214.829 494.5,208.5C 494.5,208.167 494.5,207.833 494.5,207.5C 495.458,207.047 496.292,206.381 497,205.5C 497.696,202.522 498.196,199.522 498.5,196.5C 498.328,195.508 498.662,194.842 499.5,194.5 Z"/></g>
<g><path style="opacity:1" fill="#364b73" d="M 494.5,208.5 C 493.072,214.829 491.572,221.162 490,227.5C 488.62,230.005 486.786,232.005 484.5,233.5C 487.462,224.931 490.796,216.598 494.5,208.5 Z"/></g>
<g><path style="opacity:1" fill="#3a4c72" d="M 484.5,233.5 C 484.414,234.496 484.748,235.329 485.5,236C 484.133,238.672 483.133,241.505 482.5,244.5C 479.984,247.859 478.318,251.525 477.5,255.5C 476.5,255.5 475.5,255.5 474.5,255.5C 477.323,247.86 480.656,240.527 484.5,233.5 Z"/></g>
<g><path style="opacity:1" fill="#5a6988" d="M 474.5,255.5 C 474.55,260.045 472.883,263.711 469.5,266.5C 470.382,262.407 472.049,258.74 474.5,255.5 Z"/></g>
<g><path style="opacity:1" fill="#647797" d="M 499.5,263.5 C 499.5,264.5 499.5,265.5 499.5,266.5C 498.833,267.5 498.167,268.5 497.5,269.5C 496.086,266.884 496.752,264.884 499.5,263.5 Z"/></g>
<g><path style="opacity:1" fill="#526486" d="M 462.5,280.5 C 462.414,281.496 462.748,282.329 463.5,283C 462.369,285.374 460.702,287.208 458.5,288.5C 459.326,285.515 460.659,282.849 462.5,280.5 Z"/></g>
<g><path style="opacity:1" fill="#5d6e93" d="M 487.5,295.5 C 486.674,298.485 485.341,301.151 483.5,303.5C 483.854,301.459 483.854,299.626 483.5,298C 484.693,296.905 486.027,296.072 487.5,295.5 Z"/></g>
<g><path style="opacity:0.984" fill="#71809b" d="M 450.5,304.5 C 450.408,306.848 449.408,308.514 447.5,309.5C 447.75,307.326 448.75,305.659 450.5,304.5 Z"/></g>
<g><path style="opacity:1" fill="#2e446b" d="M 458.5,288.5 C 457.845,292.812 456.345,296.812 454,300.5C 455.131,307.598 452.298,311.931 445.5,313.5C 445.66,311.847 446.326,310.514 447.5,309.5C 449.408,308.514 450.408,306.848 450.5,304.5C 452.659,298.849 455.326,293.516 458.5,288.5 Z"/></g>
<g><path style="opacity:1" fill="#526386" d="M 478.5,313.5 C 476.668,317.836 474.335,321.836 471.5,325.5C 471.297,323.956 470.63,322.622 469.5,321.5C 470.689,320.571 472.022,320.238 473.5,320.5C 473.213,316.785 474.88,314.452 478.5,313.5 Z"/></g>
<g><path style="opacity:1" fill="#47597e" d="M 445.5,313.5 C 445.597,317.652 443.931,320.652 440.5,322.5C 441.41,319.008 443.076,316.008 445.5,313.5 Z"/></g>
<g><path style="opacity:1" fill="#07334c" d="M 499.5,306.5 C 499.5,370.833 499.5,435.167 499.5,499.5C 436.833,499.5 374.167,499.5 311.5,499.5C 315.763,496.019 320.097,492.519 324.5,489C 343.649,478.841 363.315,469.841 383.5,462C 405.432,452.373 426.098,440.706 445.5,427C 468.03,409.432 483.197,386.932 491,359.5C 494.889,341.857 497.722,324.19 499.5,306.5 Z"/></g>
<g><path style="opacity:1" fill="#3f537e" d="M 471.5,325.5 C 469.554,329.439 467.221,333.106 464.5,336.5C 464.337,334.143 464.503,331.81 465,329.5C 465.414,329.957 465.914,330.291 466.5,330.5C 467.666,328.635 467.333,326.968 465.5,325.5C 467.655,325.14 469.655,325.14 471.5,325.5 Z"/></g>
<g><path style="opacity:1" fill="#5d718f" d="M 440.5,322.5 C 440.408,324.848 439.408,326.514 437.5,327.5C 437.75,325.326 438.75,323.659 440.5,322.5 Z"/></g>
<g><path style="opacity:1" fill="#2c7f88" d="M 499.5,286.5 C 499.5,293.167 499.5,299.833 499.5,306.5C 497.722,324.19 494.889,341.857 491,359.5C 483.197,386.932 468.03,409.432 445.5,427C 426.098,440.706 405.432,452.373 383.5,462C 363.315,469.841 343.649,478.841 324.5,489C 320.097,492.519 315.763,496.019 311.5,499.5C 290.833,499.5 270.167,499.5 249.5,499.5C 252.129,495.537 255.129,491.871 258.5,488.5C 260.749,487.92 262.415,486.587 263.5,484.5C 266,481.168 269,478.334 272.5,476C 280.832,470.165 289.499,464.832 298.5,460C 330.751,445.805 363.084,431.805 395.5,418C 413.398,408.912 430.064,398.079 445.5,385.5C 449.167,383.833 451.833,381.167 453.5,377.5C 477.047,351.407 492.38,321.073 499.5,286.5 Z"/></g>
<g><path style="opacity:0.6" fill="#818fa8" d="M 434.5,332.5 C 434.573,334.027 433.906,335.027 432.5,335.5C 432.427,333.973 433.094,332.973 434.5,332.5 Z"/></g>
<g><path style="opacity:0.537" fill="#919fb5" d="M 432.5,335.5 C 432.573,337.027 431.906,338.027 430.5,338.5C 430.427,336.973 431.094,335.973 432.5,335.5 Z"/></g>
<g><path style="opacity:0.529" fill="#8da0b7" d="M 430.5,338.5 C 430.573,340.027 429.906,341.027 428.5,341.5C 428.427,339.973 429.094,338.973 430.5,338.5 Z"/></g>
<g><path style="opacity:1" fill="#4a5b81" d="M 463.5,337.5 C 462.66,339.853 461.326,341.853 459.5,343.5C 459.336,340.813 459.503,338.146 460,335.5C 460.816,336.823 461.983,337.489 463.5,337.5 Z"/></g>
<g><path style="opacity:0.58" fill="#869aae" d="M 428.5,341.5 C 428.573,343.027 427.906,344.027 426.5,344.5C 426.427,342.973 427.094,341.973 428.5,341.5 Z"/></g>
<g><path style="opacity:1" fill="#647391" d="M 459.5,343.5 C 458.974,345.23 457.974,346.564 456.5,347.5C 456.5,346.167 456.5,344.833 456.5,343.5C 457.5,343.5 458.5,343.5 459.5,343.5 Z"/></g>
<g><path style="opacity:0.663" fill="#7b8da5" d="M 426.5,344.5 C 426.573,346.027 425.906,347.027 424.5,347.5C 424.427,345.973 425.094,344.973 426.5,344.5 Z"/></g>
<g><path style="opacity:0.941" fill="#6d7e9e" d="M 421.5,351.5 C 420.864,353.795 419.531,355.461 417.5,356.5C 418.124,354.246 419.457,352.579 421.5,351.5 Z"/></g>
<g><path style="opacity:1" fill="#495b80" d="M 455.5,348.5 C 452.253,354.083 448.253,359.083 443.5,363.5C 443.337,361.143 443.503,358.81 444,356.5C 445.011,357.337 446.178,357.67 447.5,357.5C 448.352,354.777 449.519,352.11 451,349.5C 451.414,349.957 451.914,350.291 452.5,350.5C 453.167,349.5 453.833,348.5 454.5,347.5C 455.107,347.624 455.44,347.957 455.5,348.5 Z"/></g>
<g><path style="opacity:0.827" fill="#8d9eb7" d="M 417.5,356.5 C 417.262,358.404 416.262,359.738 414.5,360.5C 414.738,358.596 415.738,357.262 417.5,356.5 Z"/></g>
<g><path style="opacity:0.8" fill="#8d9db5" d="M 408.5,367.5 C 408.262,369.404 407.262,370.738 405.5,371.5C 405.738,369.596 406.738,368.262 408.5,367.5 Z"/></g>
<g><path style="opacity:1" fill="#3f5078" d="M 439.5,367.5 C 436.167,371.5 432.5,375.167 428.5,378.5C 428.5,377.167 428.5,375.833 428.5,374.5C 429.5,374.5 430.5,374.5 431.5,374.5C 431.34,372.801 431.506,371.134 432,369.5C 432.333,369.833 432.667,370.167 433,370.5C 434.636,368.45 436.802,367.45 439.5,367.5 Z"/></g>
<g><path style="opacity:0.604" fill="#92a0b3" d="M 399.5,377.5 C 399.262,379.404 398.262,380.738 396.5,381.5C 396.738,379.596 397.738,378.262 399.5,377.5 Z"/></g>
<g><path style="opacity:0.871" fill="#7eabac" d="M 453.5,377.5 C 451.833,381.167 449.167,383.833 445.5,385.5C 447.833,382.5 450.5,379.833 453.5,377.5 Z"/></g>
<g><path style="opacity:0.906" fill="#4d5e81" d="M 422.5,383.5 C 420.781,386.219 418.447,388.219 415.5,389.5C 413.63,385.018 414.463,384.018 418,386.5C 418.589,384.137 420.089,383.137 422.5,383.5 Z"/></g>
<g><path style="opacity:1" fill="#43557c" d="M 415.5,389.5 C 413.2,391.984 410.533,393.984 407.5,395.5C 408.017,392.715 408.85,390.048 410,387.5C 411.401,389.192 413.234,389.859 415.5,389.5 Z"/></g>
<g><path style="opacity:0.757" fill="#7b8ba6" d="M 384.5,393.5 C 382.5,395.833 380.5,398.167 378.5,400.5C 377.833,400.5 377.167,400.5 376.5,400.5C 378.569,397.427 381.236,395.094 384.5,393.5 Z"/></g>
<g><path style="opacity:1" fill="#647393" d="M 407.5,395.5 C 406.055,397.063 404.389,398.396 402.5,399.5C 402.5,398.167 402.5,396.833 402.5,395.5C 404.167,395.5 405.833,395.5 407.5,395.5 Z"/></g>
<g><path style="opacity:0.871" fill="#7889a8" d="M 374.5,402.5 C 374.167,403.167 373.833,403.833 373.5,404.5C 372.5,404.833 371.833,405.5 371.5,406.5C 370.833,406.5 370.167,406.5 369.5,406.5C 370.585,404.413 372.251,403.08 374.5,402.5 Z"/></g>
<g><path style="opacity:1" fill="#11326b" d="M 371.5,406.5 C 371.833,405.5 372.5,404.833 373.5,404.5C 375.048,404.821 375.715,405.821 375.5,407.5C 377.288,407.785 378.955,407.452 380.5,406.5C 381.808,404.359 383.308,402.359 385,400.5C 386.883,401.653 387.716,403.319 387.5,405.5C 383.794,406.522 380.461,408.356 377.5,411C 376.207,411.49 374.873,411.657 373.5,411.5C 373.169,409.678 372.502,408.011 371.5,406.5 Z"/></g>
<g><path style="opacity:1" fill="#2b426d" d="M 401.5,399.5 C 394.115,404.861 386.115,409.194 377.5,412.5C 375.219,412.077 373.552,412.744 372.5,414.5C 370.219,414.077 368.552,414.744 367.5,416.5C 365.786,417.738 363.786,418.405 361.5,418.5C 359.901,418.768 358.568,418.434 357.5,417.5C 361.474,413.862 365.474,410.195 369.5,406.5C 370.167,406.5 370.833,406.5 371.5,406.5C 372.502,408.011 373.169,409.678 373.5,411.5C 374.873,411.657 376.207,411.49 377.5,411C 380.461,408.356 383.794,406.522 387.5,405.5C 387.716,403.319 386.883,401.653 385,400.5C 383.308,402.359 381.808,404.359 380.5,406.5C 378.955,407.452 377.288,407.785 375.5,407.5C 375.715,405.821 375.048,404.821 373.5,404.5C 373.833,403.833 374.167,403.167 374.5,402.5C 374.833,401.5 375.5,400.833 376.5,400.5C 377.167,400.5 377.833,400.5 378.5,400.5C 378.369,401.239 378.536,401.906 379,402.5C 381.333,401.587 383.166,400.087 384.5,398C 385.448,397.517 386.448,397.351 387.5,397.5C 387.238,398.978 387.571,400.311 388.5,401.5C 391.331,403.129 393.665,402.629 395.5,400C 394.833,399.667 394.167,399.333 393.5,399C 396.345,396.9 399.012,397.067 401.5,399.5 Z"/></g>
<g><path style="opacity:1" fill="#647694" d="M 377.5,412.5 C 376.22,413.931 374.553,414.598 372.5,414.5C 373.552,412.744 375.219,412.077 377.5,412.5 Z"/></g>
<g><path style="opacity:1" fill="#637799" d="M 372.5,414.5 C 371.22,415.931 369.553,416.598 367.5,416.5C 368.552,414.744 370.219,414.077 372.5,414.5 Z"/></g>
<g><path style="opacity:0.392" fill="#b1b9c7" d="M 357.5,417.5 C 358.568,418.434 359.901,418.768 361.5,418.5C 359.107,420.14 356.607,420.807 354,420.5C 354.033,418.522 355.2,417.522 357.5,417.5 Z"/></g>
<g><path style="opacity:0.714" fill="#9ac1c5" d="M 263.5,484.5 C 262.415,486.587 260.749,487.92 258.5,488.5C 259.585,486.413 261.251,485.08 263.5,484.5 Z"/></g>
</svg>
