<svg xmlns="http://www.w3.org/2000/svg" xmlns:xlink="http://www.w3.org/1999/xlink" width="2500" zoomAndPan="magnify" viewBox="0 0 1874.88 1874.999927" height="2500" preserveAspectRatio="xMidYMid meet" version="1.0"><defs><clipPath id="a82c9fb0d6"><path d="M 395 434 L 464 434 L 464 506 L 395 506 Z M 395 434 " clip-rule="nonzero"/></clipPath><clipPath id="b6b6779b73"><path d="M 335.898438 -119.683594 L 2048.753906 1593.171875 L 1657.925781 1984 L -54.929688 271.144531 Z M 335.898438 -119.683594 " clip-rule="nonzero"/></clipPath><clipPath id="a42ae4458a"><path d="M 335.898438 -119.683594 L 2048.753906 1593.171875 L 1657.925781 1984 L -54.929688 271.144531 Z M 335.898438 -119.683594 " clip-rule="nonzero"/></clipPath><clipPath id="a0175d183c"><path d="M 176 41 L 244 41 L 244 112 L 176 112 Z M 176 41 " clip-rule="nonzero"/></clipPath><clipPath id="0b8723d272"><path d="M 335.898438 -119.683594 L 2048.753906 1593.171875 L 1657.925781 1984 L -54.929688 271.144531 Z M 335.898438 -119.683594 " clip-rule="nonzero"/></clipPath><clipPath id="84ddc4d598"><path d="M 335.898438 -119.683594 L 2048.753906 1593.171875 L 1657.925781 1984 L -54.929688 271.144531 Z M 335.898438 -119.683594 " clip-rule="nonzero"/></clipPath><clipPath id="91702b7445"><path d="M 817 629 L 890 629 L 890 694 L 817 694 Z M 817 629 " clip-rule="nonzero"/></clipPath><clipPath id="9505a4974a"><path d="M 335.898438 -119.683594 L 2048.753906 1593.171875 L 1657.925781 1984 L -54.929688 271.144531 Z M 335.898438 -119.683594 " clip-rule="nonzero"/></clipPath><clipPath id="cae20c1f7d"><path d="M 335.898438 -119.683594 L 2048.753906 1593.171875 L 1657.925781 1984 L -54.929688 271.144531 Z M 335.898438 -119.683594 " clip-rule="nonzero"/></clipPath><clipPath id="ac55b987b5"><path d="M 542 796 L 606 796 L 606 869 L 542 869 Z M 542 796 " clip-rule="nonzero"/></clipPath><clipPath id="b893a61542"><path d="M 335.898438 -119.683594 L 2048.753906 1593.171875 L 1657.925781 1984 L -54.929688 271.144531 Z M 335.898438 -119.683594 " clip-rule="nonzero"/></clipPath><clipPath id="98fc999e5b"><path d="M 335.898438 -119.683594 L 2048.753906 1593.171875 L 1657.925781 1984 L -54.929688 271.144531 Z M 335.898438 -119.683594 " clip-rule="nonzero"/></clipPath><clipPath id="4e0b293f37"><path d="M 646 234 L 709 234 L 709 307 L 646 307 Z M 646 234 " clip-rule="nonzero"/></clipPath><clipPath id="ccc57fcf7a"><path d="M 335.898438 -119.683594 L 2048.753906 1593.171875 L 1657.925781 1984 L -54.929688 271.144531 Z M 335.898438 -119.683594 " clip-rule="nonzero"/></clipPath><clipPath id="b200c515b6"><path d="M 335.898438 -119.683594 L 2048.753906 1593.171875 L 1657.925781 1984 L -54.929688 271.144531 Z M 335.898438 -119.683594 " clip-rule="nonzero"/></clipPath><clipPath id="07bc9b51bf"><path d="M 1069 1044 L 1134 1044 L 1134 1117 L 1069 1117 Z M 1069 1044 " clip-rule="nonzero"/></clipPath><clipPath id="bdaa025d82"><path d="M 335.898438 -119.683594 L 2048.753906 1593.171875 L 1657.925781 1984 L -54.929688 271.144531 Z M 335.898438 -119.683594 " clip-rule="nonzero"/></clipPath><clipPath id="e67c1da324"><path d="M 335.898438 -119.683594 L 2048.753906 1593.171875 L 1657.925781 1984 L -54.929688 271.144531 Z M 335.898438 -119.683594 " clip-rule="nonzero"/></clipPath><clipPath id="0a6ebff3a2"><path d="M 1347 1078 L 1419 1078 L 1419 1143 L 1347 1143 Z M 1347 1078 " clip-rule="nonzero"/></clipPath><clipPath id="55d8a787ea"><path d="M 335.898438 -119.683594 L 2048.753906 1593.171875 L 1657.925781 1984 L -54.929688 271.144531 Z M 335.898438 -119.683594 " clip-rule="nonzero"/></clipPath><clipPath id="6be4d9f397"><path d="M 335.898438 -119.683594 L 2048.753906 1593.171875 L 1657.925781 1984 L -54.929688 271.144531 Z M 335.898438 -119.683594 " clip-rule="nonzero"/></clipPath><clipPath id="24930e0cd3"><path d="M 1572 1334 L 1642 1334 L 1642 1405 L 1572 1405 Z M 1572 1334 " clip-rule="nonzero"/></clipPath><clipPath id="5132455a0d"><path d="M 335.898438 -119.683594 L 2048.753906 1593.171875 L 1657.925781 1984 L -54.929688 271.144531 Z M 335.898438 -119.683594 " clip-rule="nonzero"/></clipPath><clipPath id="faa10d4dbc"><path d="M 335.898438 -119.683594 L 2048.753906 1593.171875 L 1657.925781 1984 L -54.929688 271.144531 Z M 335.898438 -119.683594 " clip-rule="nonzero"/></clipPath><clipPath id="008cc887dc"><path d="M 962 1209 L 1033 1209 L 1033 1278 L 962 1278 Z M 962 1209 " clip-rule="nonzero"/></clipPath><clipPath id="73e8a5ea4b"><path d="M 335.898438 -119.683594 L 2048.753906 1593.171875 L 1657.925781 1984 L -54.929688 271.144531 Z M 335.898438 -119.683594 " clip-rule="nonzero"/></clipPath><clipPath id="c5c93d80f6"><path d="M 335.898438 -119.683594 L 2048.753906 1593.171875 L 1657.925781 1984 L -54.929688 271.144531 Z M 335.898438 -119.683594 " clip-rule="nonzero"/></clipPath><clipPath id="eba715549c"><path d="M 1796 1593 L 1866 1593 L 1866 1664 L 1796 1664 Z M 1796 1593 " clip-rule="nonzero"/></clipPath><clipPath id="ddf4b9d950"><path d="M 335.898438 -119.683594 L 2048.753906 1593.171875 L 1657.925781 1984 L -54.929688 271.144531 Z M 335.898438 -119.683594 " clip-rule="nonzero"/></clipPath><clipPath id="d47166c743"><path d="M 335.898438 -119.683594 L 2048.753906 1593.171875 L 1657.925781 1984 L -54.929688 271.144531 Z M 335.898438 -119.683594 " clip-rule="nonzero"/></clipPath><clipPath id="07a54ccc0c"><path d="M 1538 1727 L 1610 1727 L 1610 1792 L 1538 1792 Z M 1538 1727 " clip-rule="nonzero"/></clipPath><clipPath id="363c51e83f"><path d="M 335.898438 -119.683594 L 2048.753906 1593.171875 L 1657.925781 1984 L -54.929688 271.144531 Z M 335.898438 -119.683594 " clip-rule="nonzero"/></clipPath><clipPath id="de5f2d3abd"><path d="M 335.898438 -119.683594 L 2048.753906 1593.171875 L 1657.925781 1984 L -54.929688 271.144531 Z M 335.898438 -119.683594 " clip-rule="nonzero"/></clipPath><clipPath id="815f294995"><path d="M 452 216 L 515 216 L 515 288 L 452 288 Z M 452 216 " clip-rule="nonzero"/></clipPath><clipPath id="63aabd14f7"><path d="M 335.898438 -119.683594 L 2048.753906 1593.171875 L 1657.925781 1984 L -54.929688 271.144531 Z M 335.898438 -119.683594 " clip-rule="nonzero"/></clipPath><clipPath id="f619f215f1"><path d="M 335.898438 -119.683594 L 2048.753906 1593.171875 L 1657.925781 1984 L -54.929688 271.144531 Z M 335.898438 -119.683594 " clip-rule="nonzero"/></clipPath><clipPath id="91e739a1f9"><path d="M 568 612 L 640 612 L 640 676 L 568 676 Z M 568 612 " clip-rule="nonzero"/></clipPath><clipPath id="22c560e6ae"><path d="M 335.898438 -119.683594 L 2048.753906 1593.171875 L 1657.925781 1984 L -54.929688 271.144531 Z M 335.898438 -119.683594 " clip-rule="nonzero"/></clipPath><clipPath id="c252bc28ba"><path d="M 335.898438 -119.683594 L 2048.753906 1593.171875 L 1657.925781 1984 L -54.929688 271.144531 Z M 335.898438 -119.683594 " clip-rule="nonzero"/></clipPath><clipPath id="085852f70b"><path d="M 183 280 L 252 280 L 252 351 L 183 351 Z M 183 280 " clip-rule="nonzero"/></clipPath><clipPath id="534e4841eb"><path d="M 335.898438 -119.683594 L 2048.753906 1593.171875 L 1657.925781 1984 L -54.929688 271.144531 Z M 335.898438 -119.683594 " clip-rule="nonzero"/></clipPath><clipPath id="e7ebada19a"><path d="M 335.898438 -119.683594 L 2048.753906 1593.171875 L 1657.925781 1984 L -54.929688 271.144531 Z M 335.898438 -119.683594 " clip-rule="nonzero"/></clipPath><clipPath id="8d3e6bb7af"><path d="M 1003 818 L 1076 818 L 1076 882 L 1003 882 Z M 1003 818 " clip-rule="nonzero"/></clipPath><clipPath id="0d2595af37"><path d="M 335.898438 -119.683594 L 2048.753906 1593.171875 L 1657.925781 1984 L -54.929688 271.144531 Z M 335.898438 -119.683594 " clip-rule="nonzero"/></clipPath><clipPath id="9c35720b1e"><path d="M 335.898438 -119.683594 L 2048.753906 1593.171875 L 1657.925781 1984 L -54.929688 271.144531 Z M 335.898438 -119.683594 " clip-rule="nonzero"/></clipPath><clipPath id="58fe922fd7"><path d="M 1141 1242 L 1204 1242 L 1204 1314 L 1141 1314 Z M 1141 1242 " clip-rule="nonzero"/></clipPath><clipPath id="5183188dc0"><path d="M 335.898438 -119.683594 L 2048.753906 1593.171875 L 1657.925781 1984 L -54.929688 271.144531 Z M 335.898438 -119.683594 " clip-rule="nonzero"/></clipPath><clipPath id="98ad20a9af"><path d="M 335.898438 -119.683594 L 2048.753906 1593.171875 L 1657.925781 1984 L -54.929688 271.144531 Z M 335.898438 -119.683594 " clip-rule="nonzero"/></clipPath><clipPath id="39bb042513"><path d="M 1535 1148 L 1605 1148 L 1605 1219 L 1535 1219 Z M 1535 1148 " clip-rule="nonzero"/></clipPath><clipPath id="345452b09f"><path d="M 335.898438 -119.683594 L 2048.753906 1593.171875 L 1657.925781 1984 L -54.929688 271.144531 Z M 335.898438 -119.683594 " clip-rule="nonzero"/></clipPath><clipPath id="7029b6e99b"><path d="M 335.898438 -119.683594 L 2048.753906 1593.171875 L 1657.925781 1984 L -54.929688 271.144531 Z M 335.898438 -119.683594 " clip-rule="nonzero"/></clipPath><clipPath id="3602c718b5"><path d="M 1371 1533 L 1436 1533 L 1436 1606 L 1371 1606 Z M 1371 1533 " clip-rule="nonzero"/></clipPath><clipPath id="d72fc44c68"><path d="M 335.898438 -119.683594 L 2048.753906 1593.171875 L 1657.925781 1984 L -54.929688 271.144531 Z M 335.898438 -119.683594 " clip-rule="nonzero"/></clipPath><clipPath id="491064b35f"><path d="M 335.898438 -119.683594 L 2048.753906 1593.171875 L 1657.925781 1984 L -54.929688 271.144531 Z M 335.898438 -119.683594 " clip-rule="nonzero"/></clipPath><clipPath id="cda2479164"><path d="M 1734 1452 L 1806 1452 L 1806 1518 L 1734 1518 Z M 1734 1452 " clip-rule="nonzero"/></clipPath><clipPath id="b21bfdb087"><path d="M 335.898438 -119.683594 L 2048.753906 1593.171875 L 1657.925781 1984 L -54.929688 271.144531 Z M 335.898438 -119.683594 " clip-rule="nonzero"/></clipPath><clipPath id="49c2ab77eb"><path d="M 335.898438 -119.683594 L 2048.753906 1593.171875 L 1657.925781 1984 L -54.929688 271.144531 Z M 335.898438 -119.683594 " clip-rule="nonzero"/></clipPath><clipPath id="1374e88001"><path d="M 1709 1815 L 1779 1815 L 1779 1874.9375 L 1709 1874.9375 Z M 1709 1815 " clip-rule="nonzero"/></clipPath><clipPath id="6de099dd86"><path d="M 335.898438 -119.683594 L 2048.753906 1593.171875 L 1657.925781 1984 L -54.929688 271.144531 Z M 335.898438 -119.683594 " clip-rule="nonzero"/></clipPath><clipPath id="618e229742"><path d="M 335.898438 -119.683594 L 2048.753906 1593.171875 L 1657.925781 1984 L -54.929688 271.144531 Z M 335.898438 -119.683594 " clip-rule="nonzero"/></clipPath><clipPath id="68af29343e"><path d="M 841 1004 L 907 1004 L 907 1076 L 841 1076 Z M 841 1004 " clip-rule="nonzero"/></clipPath><clipPath id="9ae33fc423"><path d="M 335.898438 -119.683594 L 2048.753906 1593.171875 L 1657.925781 1984 L -54.929688 271.144531 Z M 335.898438 -119.683594 " clip-rule="nonzero"/></clipPath><clipPath id="7dae9c4624"><path d="M 335.898438 -119.683594 L 2048.753906 1593.171875 L 1657.925781 1984 L -54.929688 271.144531 Z M 335.898438 -119.683594 " clip-rule="nonzero"/></clipPath><clipPath id="87968f8a04"><path d="M 1019 657 L 1087 657 L 1087 729 L 1019 729 Z M 1019 657 " clip-rule="nonzero"/></clipPath><clipPath id="9d10e7ec37"><path d="M 335.898438 -119.683594 L 2048.753906 1593.171875 L 1657.925781 1984 L -54.929688 271.144531 Z M 335.898438 -119.683594 " clip-rule="nonzero"/></clipPath><clipPath id="443ad449ed"><path d="M 335.898438 -119.683594 L 2048.753906 1593.171875 L 1657.925781 1984 L -54.929688 271.144531 Z M 335.898438 -119.683594 " clip-rule="nonzero"/></clipPath><clipPath id="1393e6b002"><path d="M 688 425 L 756 425 L 756 496 L 688 496 Z M 688 425 " clip-rule="nonzero"/></clipPath><clipPath id="dae7300a1f"><path d="M 335.898438 -119.683594 L 2048.753906 1593.171875 L 1657.925781 1984 L -54.929688 271.144531 Z M 335.898438 -119.683594 " clip-rule="nonzero"/></clipPath><clipPath id="ad3fa9b72d"><path d="M 335.898438 -119.683594 L 2048.753906 1593.171875 L 1657.925781 1984 L -54.929688 271.144531 Z M 335.898438 -119.683594 " clip-rule="nonzero"/></clipPath><clipPath id="efbcb4d2e2"><path d="M 0 213 L 39 213 L 39 286 L 0 286 Z M 0 213 " clip-rule="nonzero"/></clipPath><clipPath id="d1da6aac23"><path d="M 335.898438 -119.683594 L 2048.753906 1593.171875 L 1657.925781 1984 L -54.929688 271.144531 Z M 335.898438 -119.683594 " clip-rule="nonzero"/></clipPath><clipPath id="af2341457c"><path d="M 335.898438 -119.683594 L 2048.753906 1593.171875 L 1657.925781 1984 L -54.929688 271.144531 Z M 335.898438 -119.683594 " clip-rule="nonzero"/></clipPath><clipPath id="f2e5634664"><path d="M 738 823 L 808 823 L 808 893 L 738 893 Z M 738 823 " clip-rule="nonzero"/></clipPath><clipPath id="933dff9147"><path d="M 335.898438 -119.683594 L 2048.753906 1593.171875 L 1657.925781 1984 L -54.929688 271.144531 Z M 335.898438 -119.683594 " clip-rule="nonzero"/></clipPath><clipPath id="b5a523d597"><path d="M 335.898438 -119.683594 L 2048.753906 1593.171875 L 1657.925781 1984 L -54.929688 271.144531 Z M 335.898438 -119.683594 " clip-rule="nonzero"/></clipPath><clipPath id="3f43cba911"><path d="M 361 56 L 430 56 L 430 128 L 361 128 Z M 361 56 " clip-rule="nonzero"/></clipPath><clipPath id="5c5d14f9d7"><path d="M 335.898438 -119.683594 L 2048.753906 1593.171875 L 1657.925781 1984 L -54.929688 271.144531 Z M 335.898438 -119.683594 " clip-rule="nonzero"/></clipPath><clipPath id="5a96a8dc52"><path d="M 335.898438 -119.683594 L 2048.753906 1593.171875 L 1657.925781 1984 L -54.929688 271.144531 Z M 335.898438 -119.683594 " clip-rule="nonzero"/></clipPath><clipPath id="8ff914458d"><path d="M 340 611 L 409 611 L 409 683 L 340 683 Z M 340 611 " clip-rule="nonzero"/></clipPath><clipPath id="99e69dcc90"><path d="M 335.898438 -119.683594 L 2048.753906 1593.171875 L 1657.925781 1984 L -54.929688 271.144531 Z M 335.898438 -119.683594 " clip-rule="nonzero"/></clipPath><clipPath id="6fd29fff3a"><path d="M 335.898438 -119.683594 L 2048.753906 1593.171875 L 1657.925781 1984 L -54.929688 271.144531 Z M 335.898438 -119.683594 " clip-rule="nonzero"/></clipPath><clipPath id="f955210fb4"><path d="M 1366 1289 L 1437 1289 L 1437 1358 L 1366 1358 Z M 1366 1289 " clip-rule="nonzero"/></clipPath><clipPath id="bbcf372510"><path d="M 335.898438 -119.683594 L 2048.753906 1593.171875 L 1657.925781 1984 L -54.929688 271.144531 Z M 335.898438 -119.683594 " clip-rule="nonzero"/></clipPath><clipPath id="6e38fb3ad4"><path d="M 335.898438 -119.683594 L 2048.753906 1593.171875 L 1657.925781 1984 L -54.929688 271.144531 Z M 335.898438 -119.683594 " clip-rule="nonzero"/></clipPath><clipPath id="340e8fc9f4"><path d="M 1604 1530 L 1677 1530 L 1677 1595 L 1604 1595 Z M 1604 1530 " clip-rule="nonzero"/></clipPath><clipPath id="8a466a9ec7"><path d="M 335.898438 -119.683594 L 2048.753906 1593.171875 L 1657.925781 1984 L -54.929688 271.144531 Z M 335.898438 -119.683594 " clip-rule="nonzero"/></clipPath><clipPath id="f4ba2edecf"><path d="M 335.898438 -119.683594 L 2048.753906 1593.171875 L 1657.925781 1984 L -54.929688 271.144531 Z M 335.898438 -119.683594 " clip-rule="nonzero"/></clipPath><clipPath id="089665f40d"><path d="M 1205 941 L 1277 941 L 1277 1004 L 1205 1004 Z M 1205 941 " clip-rule="nonzero"/></clipPath><clipPath id="b9830139cc"><path d="M 335.898438 -119.683594 L 2048.753906 1593.171875 L 1657.925781 1984 L -54.929688 271.144531 Z M 335.898438 -119.683594 " clip-rule="nonzero"/></clipPath><clipPath id="10f5edd67a"><path d="M 335.898438 -119.683594 L 2048.753906 1593.171875 L 1657.925781 1984 L -54.929688 271.144531 Z M 335.898438 -119.683594 " clip-rule="nonzero"/></clipPath><clipPath id="61fa723d99"><path d="M 1204 1443 L 1277 1443 L 1277 1507 L 1204 1507 Z M 1204 1443 " clip-rule="nonzero"/></clipPath><clipPath id="586bc51381"><path d="M 335.898438 -119.683594 L 2048.753906 1593.171875 L 1657.925781 1984 L -54.929688 271.144531 Z M 335.898438 -119.683594 " clip-rule="nonzero"/></clipPath><clipPath id="71acecd73c"><path d="M 335.898438 -119.683594 L 2048.753906 1593.171875 L 1657.925781 1984 L -54.929688 271.144531 Z M 335.898438 -119.683594 " clip-rule="nonzero"/></clipPath></defs><g clip-path="url(#a82c9fb0d6)"><g clip-path="url(#b6b6779b73)"><g clip-path="url(#a42ae4458a)"><path fill="#bf9b73" d="M 408.839844 505.523438 L 395.214844 434.964844 L 463.132812 458.554688 Z M 408.839844 505.523438 " fill-opacity="1" fill-rule="nonzero"/></g></g></g><g clip-path="url(#a0175d183c)"><g clip-path="url(#0b8723d272)"><g clip-path="url(#84ddc4d598)"><path fill="#bf9b73" d="M 189.640625 111.863281 L 176.015625 41.304688 L 243.933594 64.890625 Z M 189.640625 111.863281 " fill-opacity="1" fill-rule="nonzero"/></g></g></g><g clip-path="url(#91702b7445)"><g clip-path="url(#9505a4974a)"><g clip-path="url(#cae20c1f7d)"><path fill="#bf9b73" d="M 817.550781 632.816406 L 889.125 629.5625 L 855.980469 693.207031 Z M 817.550781 632.816406 " fill-opacity="1" fill-rule="nonzero"/></g></g></g><g clip-path="url(#ac55b987b5)"><g clip-path="url(#b893a61542)"><g clip-path="url(#98fc999e5b)"><path fill="#bf9b73" d="M 542.839844 868.484375 L 542.839844 796.910156 L 605.0625 832.695312 Z M 542.839844 868.484375 " fill-opacity="1" fill-rule="nonzero"/></g></g></g><g clip-path="url(#4e0b293f37)"><g clip-path="url(#ccc57fcf7a)"><g clip-path="url(#b200c515b6)"><path fill="#bf9b73" d="M 646.746094 306.253906 L 646.949219 234.476562 L 708.96875 270.464844 Z M 646.746094 306.253906 " fill-opacity="1" fill-rule="nonzero"/></g></g></g><g clip-path="url(#07bc9b51bf)"><g clip-path="url(#bdaa025d82)"><g clip-path="url(#e67c1da324)"><path fill="#bf9b73" d="M 1069.6875 1116.351562 L 1073.757812 1044.777344 L 1133.742188 1084.023438 Z M 1069.6875 1116.351562 " fill-opacity="1" fill-rule="nonzero"/></g></g></g><g clip-path="url(#0a6ebff3a2)"><g clip-path="url(#55d8a787ea)"><g clip-path="url(#6be4d9f397)"><path fill="#bf9b73" d="M 1347.246094 1142.175781 L 1380.390625 1078.53125 L 1418.820312 1138.921875 Z M 1347.246094 1142.175781 " fill-opacity="1" fill-rule="nonzero"/></g></g></g><g clip-path="url(#24930e0cd3)"><g clip-path="url(#5132455a0d)"><g clip-path="url(#faa10d4dbc)"><path fill="#bf9b73" d="M 1641.476562 1353.445312 L 1590.640625 1404.28125 L 1572.136719 1334.941406 Z M 1641.476562 1353.445312 " fill-opacity="1" fill-rule="nonzero"/></g></g></g><g clip-path="url(#008cc887dc)"><g clip-path="url(#73e8a5ea4b)"><g clip-path="url(#c5c93d80f6)"><path fill="#bf9b73" d="M 1032.886719 1264.179688 L 962.328125 1277.398438 L 986.117188 1209.6875 Z M 1032.886719 1264.179688 " fill-opacity="1" fill-rule="nonzero"/></g></g></g><g clip-path="url(#eba715549c)"><g clip-path="url(#ddf4b9d950)"><g clip-path="url(#d47166c743)"><path fill="#bf9b73" d="M 1796.011719 1644.625 L 1846.847656 1593.792969 L 1865.351562 1663.128906 Z M 1796.011719 1644.625 " fill-opacity="1" fill-rule="nonzero"/></g></g></g><g clip-path="url(#07a54ccc0c)"><g clip-path="url(#363c51e83f)"><g clip-path="url(#de5f2d3abd)"><path fill="#bf9b73" d="M 1538.179688 1791.03125 L 1570.917969 1727.382812 L 1609.753906 1787.777344 Z M 1538.179688 1791.03125 " fill-opacity="1" fill-rule="nonzero"/></g></g></g><g clip-path="url(#815f294995)"><g clip-path="url(#63aabd14f7)"><g clip-path="url(#f619f215f1)"><path fill="#1d476e" d="M 514.574219 252.164062 L 452.355469 287.953125 L 452.355469 216.378906 Z M 514.574219 252.164062 " fill-opacity="1" fill-rule="nonzero"/></g></g></g><g clip-path="url(#91e739a1f9)"><g clip-path="url(#22c560e6ae)"><g clip-path="url(#c252bc28ba)"><path fill="#1d476e" d="M 600.792969 675.921875 L 568.054688 612.277344 L 639.832031 615.734375 Z M 600.792969 675.921875 " fill-opacity="1" fill-rule="nonzero"/></g></g></g><g clip-path="url(#085852f70b)"><g clip-path="url(#534e4841eb)"><g clip-path="url(#e7ebada19a)"><path fill="#1d476e" d="M 183.949219 326.996094 L 238.238281 280.023438 L 251.863281 350.582031 Z M 183.949219 326.996094 " fill-opacity="1" fill-rule="nonzero"/></g></g></g><g clip-path="url(#8d3e6bb7af)"><g clip-path="url(#0d2595af37)"><g clip-path="url(#9c35720b1e)"><path fill="#1d476e" d="M 1003.808594 881.699219 L 1036.546875 818.054688 L 1075.382812 878.449219 Z M 1003.808594 881.699219 " fill-opacity="1" fill-rule="nonzero"/></g></g></g><g clip-path="url(#58fe922fd7)"><g clip-path="url(#5183188dc0)"><g clip-path="url(#98ad20a9af)"><path fill="#1d476e" d="M 1203.890625 1313.589844 L 1141.875 1277.601562 L 1203.890625 1242.015625 Z M 1203.890625 1313.589844 " fill-opacity="1" fill-rule="nonzero"/></g></g></g><g clip-path="url(#39bb042513)"><g clip-path="url(#345452b09f)"><g clip-path="url(#7029b6e99b)"><path fill="#1d476e" d="M 1585.964844 1218.226562 L 1535.332031 1167.59375 L 1604.46875 1148.886719 Z M 1585.964844 1218.226562 " fill-opacity="1" fill-rule="nonzero"/></g></g></g><g clip-path="url(#3602c718b5)"><g clip-path="url(#d72fc44c68)"><g clip-path="url(#491064b35f)"><path fill="#1d476e" d="M 1435.902344 1605.382812 L 1371.238281 1574.066406 L 1430.613281 1533.808594 Z M 1435.902344 1605.382812 " fill-opacity="1" fill-rule="nonzero"/></g></g></g><g clip-path="url(#cda2479164)"><g clip-path="url(#b21bfdb087)"><g clip-path="url(#49c2ab77eb)"><path fill="#1d476e" d="M 1777.507812 1517.945312 L 1734.402344 1460.605469 L 1805.570312 1452.066406 Z M 1777.507812 1517.945312 " fill-opacity="1" fill-rule="nonzero"/></g></g></g><g clip-path="url(#1374e88001)"><g clip-path="url(#6de099dd86)"><g clip-path="url(#618e229742)"><path fill="#1d476e" d="M 1757.582031 1883.546875 L 1709.1875 1830.679688 L 1778.933594 1815.023438 Z M 1757.582031 1883.546875 " fill-opacity="1" fill-rule="nonzero"/></g></g></g><g clip-path="url(#68af29343e)"><g clip-path="url(#9ae33fc423)"><g clip-path="url(#7dae9c4624)"><path fill="#1d476e" d="M 841.542969 1044.371094 L 900.917969 1004.109375 L 906.207031 1075.6875 Z M 841.542969 1044.371094 " fill-opacity="1" fill-rule="nonzero"/></g></g></g><g clip-path="url(#87968f8a04)"><g clip-path="url(#9d10e7ec37)"><g clip-path="url(#443ad449ed)"><path fill="#1d476e" d="M 1019.667969 684.054688 L 1086.363281 657.214844 L 1075.992188 728.179688 Z M 1019.667969 684.054688 " fill-opacity="1" fill-rule="nonzero"/></g></g></g><g clip-path="url(#1393e6b002)"><g clip-path="url(#dae7300a1f)"><g clip-path="url(#ad3fa9b72d)"><path fill="#297f87" d="M 755.125 469.535156 L 688.429688 495.96875 L 698.597656 425.207031 Z M 755.125 469.535156 " fill-opacity="1" fill-rule="nonzero"/></g></g></g><g clip-path="url(#efbcb4d2e2)"><g clip-path="url(#d1da6aac23)"><g clip-path="url(#af2341457c)"><path fill="#297f87" d="M -25.289062 252.777344 L 34.699219 213.53125 L 38.765625 285.105469 Z M -25.289062 252.777344 " fill-opacity="1" fill-rule="nonzero"/></g></g></g><g clip-path="url(#f2e5634664)"><g clip-path="url(#933dff9147)"><g clip-path="url(#b5a523d597)"><path fill="#297f87" d="M 738.042969 873.769531 L 788.675781 823.140625 L 807.179688 892.476562 Z M 738.042969 873.769531 " fill-opacity="1" fill-rule="nonzero"/></g></g></g><g clip-path="url(#3f43cba911)"><g clip-path="url(#5c5d14f9d7)"><g clip-path="url(#5a96a8dc52)"><path fill="#297f87" d="M 361.867188 103.933594 L 416.160156 56.960938 L 429.785156 127.519531 Z M 361.867188 103.933594 " fill-opacity="1" fill-rule="nonzero"/></g></g></g><g clip-path="url(#8ff914458d)"><g clip-path="url(#99e69dcc90)"><g clip-path="url(#6fd29fff3a)"><path fill="#297f87" d="M 340.925781 658.84375 L 395.214844 611.871094 L 408.839844 682.429688 Z M 340.925781 658.84375 " fill-opacity="1" fill-rule="nonzero"/></g></g></g><g clip-path="url(#f955210fb4)"><g clip-path="url(#bbcf372510)"><g clip-path="url(#6e38fb3ad4)"><path fill="#297f87" d="M 1366.359375 1357.308594 L 1390.148438 1289.597656 L 1436.917969 1344.09375 Z M 1366.359375 1357.308594 " fill-opacity="1" fill-rule="nonzero"/></g></g></g><g clip-path="url(#340e8fc9f4)"><g clip-path="url(#8a466a9ec7)"><g clip-path="url(#f4ba2edecf)"><path fill="#297f87" d="M 1604.875 1594.605469 L 1638.019531 1530.960938 L 1676.449219 1591.351562 Z M 1604.875 1594.605469 " fill-opacity="1" fill-rule="nonzero"/></g></g></g><g clip-path="url(#089665f40d)"><g clip-path="url(#b9830139cc)"><g clip-path="url(#10f5edd67a)"><path fill="#297f87" d="M 1240.898438 1003.703125 L 1205.113281 941.480469 L 1276.890625 941.6875 Z M 1240.898438 1003.703125 " fill-opacity="1" fill-rule="nonzero"/></g></g></g><g clip-path="url(#61fa723d99)"><g clip-path="url(#586bc51381)"><g clip-path="url(#71acecd73c)"><path fill="#297f87" d="M 1204.910156 1443.117188 L 1276.6875 1446.574219 L 1237.851562 1506.964844 Z M 1204.910156 1443.117188 " fill-opacity="1" fill-rule="nonzero"/></g></g></g></svg>